<svg width="580" height="400" xmlns="http://www.w3.org/2000/svg">
 <!-- Created with SVG Editor - http://github.com/mzalive/SVG Editor/ -->

 <g>
  <title>background</title>
  <g display="none" overflow="visible" y="0" x="0" height="100%" width="100%" id="canvasGrid">
   <rect fill="url(#gridpattern)" stroke-width="0" y="0" x="0" height="100%" width="100%"/>
  </g>
 </g>
 <g>
  <title>Layer 1</title>
  <g id="svg_23">
   <g transform="matrix(9.108062846506982,0,0,9.108062846506982,0,0) " id="svg_5">
    <path fill="#ffffff" id="svg_6" d="m19.825956,4.848773l-10.625,17l10.625,17l33.555,0l0,-34l-33.555,0zm31.555,32l-30.446,0l-9.375,-15l9.375,-15l30.446,0l0,30z"/>
    <polygon fill="#ffffff" id="svg_7" points="28.08795464038849,30.555774569511414 35.38095581531525,23.262773394584656 42.67395508289337,30.555774569511414 44.08795654773712,29.141773104667664 36.79495346546173,21.84877383708954 44.08795654773712,14.55577266216278 42.67395508289337,13.141773104667664 35.38095581531525,20.43477427959442 28.08795464038849,13.141773104667664 26.67395508289337,14.55577266216278 33.96695816516876,21.84877383708954 26.67395508289337,29.141773104667664 "/>
   </g>
   <g transform="matrix(9.108062846506982,0,0,9.108062846506982,0,0) " id="svg_8"/>
   <g transform="matrix(9.108062846506982,0,0,9.108062846506982,0,0) " id="svg_9"/>
   <g transform="matrix(9.108062846506982,0,0,9.108062846506982,0,0) " id="svg_10"/>
   <g transform="matrix(9.108062846506982,0,0,9.108062846506982,0,0) " id="svg_11"/>
   <g transform="matrix(9.108062846506982,0,0,9.108062846506982,0,0) " id="svg_12"/>
   <g transform="matrix(9.108062846506982,0,0,9.108062846506982,0,0) " id="svg_13"/>
   <g transform="matrix(9.108062846506982,0,0,9.108062846506982,0,0) " id="svg_14"/>
   <g transform="matrix(9.108062846506982,0,0,9.108062846506982,0,0) " id="svg_15"/>
   <g transform="matrix(9.108062846506982,0,0,9.108062846506982,0,0) " id="svg_16"/>
   <g transform="matrix(9.108062846506982,0,0,9.108062846506982,0,0) " id="svg_17"/>
   <g transform="matrix(9.108062846506982,0,0,9.108062846506982,0,0) " id="svg_18"/>
   <g transform="matrix(9.108062846506982,0,0,9.108062846506982,0,0) " id="svg_19"/>
   <g transform="matrix(9.108062846506982,0,0,9.108062846506982,0,0) " id="svg_20"/>
   <g transform="matrix(9.108062846506982,0,0,9.108062846506982,0,0) " id="svg_21"/>
   <g transform="matrix(9.108062846506982,0,0,9.108062846506982,0,0) " id="svg_22"/>
  </g>
  <ellipse ry="2.155215" rx="3.017301" id="svg_24" cy="183.189325" cx="547.763676" stroke-width="1.5" stroke="#ffff00" fill="#ffffff"/>
 </g>
</svg>