<svg width="551.13" height="551.13" xmlns="http://www.w3.org/2000/svg">

 <g>
  <title>background</title>
  <rect fill="none" id="canvas_background" height="402" width="582" y="-1" x="-1"/>
 </g>
 <g>
  <title>Layer 1</title>
  <path fill="#ffffff" id="svg_1" d="m275.531,172.228l-0.05,120.493c0,4.575 1.816,8.948 5.046,12.177l86.198,86.181l24.354,-24.354l-81.153,-81.136l0.05,-113.361l-34.445,0z"/>
  <path fill="#ffffff" id="svg_2" d="m310.011,34.445c-121.23,0 -221.563,90.033 -238.367,206.674l-71.644,0l86.114,86.114l86.114,-86.114l-65.78,0c16.477,-97.589 101.355,-172.228 203.563,-172.228c113.966,0 206.674,92.707 206.674,206.674s-92.707,206.674 -206.674,206.674c-64.064,0 -123.469,-28.996 -162.978,-79.555l-27.146,21.192c46.084,58.968 115.379,92.808 190.124,92.808c132.955,0 241.119,-108.181 241.119,-241.119s-108.164,-241.119 -241.119,-241.12z"/>
 </g>
</svg>